<svg width="607" height="292" viewBox="0 0 607 292" fill="none" xmlns="http://www.w3.org/2000/svg">
<path d="M494.423 126.014V71.4535C494.423 66.0133 498.85 61.5876 504.293 61.5876H540C545.442 61.5876 549.87 66.0133 549.87 71.4535V126.014C549.87 131.455 545.442 135.88 540 135.88H504.293C498.85 135.88 494.423 131.455 494.423 126.014Z" fill="#A5B4FC"/>
<path d="M512.708 85.1726H531.584V80.4556H512.708V85.1726Z" fill="#1E1B4B"/>
<path d="M517.427 76.918H526.865V61.5877H517.427V76.918Z" fill="#1E1B4B"/>
<path d="M517.427 135.88H526.865V120.55H517.427V135.88Z" fill="#3F3D56"/>
<path d="M469.058 128.22H414.475C409.033 128.22 404.605 123.794 404.605 118.354V82.6608C404.605 77.2206 409.033 72.7949 414.475 72.7949H469.058C474.501 72.7949 478.928 77.2206 478.928 82.6608V118.354C478.928 123.794 474.501 128.22 469.058 128.22Z" fill="#A5B4FC"/>
<path d="M452.384 80.46H433.509V85.177H452.384V80.46Z" fill="#1E1B4B"/>
<path d="M419.942 105.224V95.7903H404.605V105.224H419.942Z" fill="#1E1B4B"/>
<path d="M478.928 105.224V95.7903H463.592V105.224H478.928Z" fill="#1E1B4B"/>
<path d="M26.2921 230.246L17.18 177.114C13.131 153.504 30.6123 131.657 54.5439 130.418L184.445 123.693L215.448 72.6167C219.558 65.8454 226.906 61.7104 234.83 61.7104H328.167C335.504 61.7104 341.703 67.149 342.655 74.4208L345.026 115.289L577.727 115.986L607 212.419L579.828 211.095L581.222 240.345L545.69 241.737L533.845 208.259C531.614 201.955 521.841 194.847 511.682 188.9C488.909 175.567 459.651 179.846 442.417 199.826C438.351 204.539 435.509 209.45 434.714 214.055L429.339 245.22L168.769 241.041L134.619 193.29C124.53 182.314 76.9012 178.283 72.6119 193.29L46.845 231.291L26.2921 230.246Z" fill="#E6E6E6"/>
<path d="M309.502 92.7896L317.168 128.916L219.629 131.005L240.23 86.7924C242.098 82.7815 246.201 80.2913 250.623 80.4835L297.363 82.5149C303.28 82.772 308.273 86.9984 309.502 92.7896Z" fill="white"/>
<path d="M206.391 128.22L225.899 78.0768L220.792 72.9714L188.974 121.255L195.439 131.005L206.391 128.22Z" fill="white"/>
<path d="M485.772 291.184C511.168 291.184 531.755 270.605 531.755 245.22C531.755 219.834 511.168 199.255 485.772 199.255C460.376 199.255 439.789 219.834 439.789 245.22C439.789 270.605 460.376 291.184 485.772 291.184Z" fill="#3F3D56"/>
<path d="M454.072 245.22C454.072 227.747 468.293 213.532 485.773 213.532C503.252 213.532 517.473 227.747 517.473 245.22C517.473 262.692 503.252 276.907 485.773 276.907C468.293 276.907 454.072 262.692 454.072 245.22ZM454.769 245.22C454.769 262.308 468.677 276.211 485.773 276.211C502.868 276.211 516.776 262.308 516.776 245.22C516.776 228.131 502.868 214.229 485.773 214.229C468.677 214.229 454.769 228.131 454.769 245.22Z" fill="white"/>
<path d="M458.601 245.22C458.601 260.22 470.766 272.381 485.772 272.381C500.779 272.381 512.944 260.22 512.944 245.22C512.944 230.219 500.779 218.059 485.772 218.059C470.766 218.059 458.601 230.219 458.601 245.22ZM503.435 238.716L498.621 241.852L496.771 239.015L503.435 238.716ZM496.106 254.667L497.388 251.533L501.425 256.841L496.106 254.667ZM483.778 265.416L487.166 259.672V265.416H483.778ZM483.778 232.16L487.166 226.416V232.16H483.778ZM468.727 256.841L472.763 251.533L474.046 254.667L468.727 256.841ZM466.716 238.716L473.38 239.015L471.531 241.852L466.716 238.716Z" fill="#E6E6E6"/>
<path d="M99.7944 291.184C125.19 291.184 145.777 270.605 145.777 245.22C145.777 219.834 125.19 199.255 99.7944 199.255C74.3988 199.255 53.8115 219.834 53.8115 245.22C53.8115 270.605 74.3988 291.184 99.7944 291.184Z" fill="#3F3D56"/>
<path d="M68.0947 245.22C68.0947 227.747 82.3154 213.532 99.795 213.532C117.275 213.532 131.495 227.747 131.495 245.22C131.495 262.692 117.275 276.907 99.795 276.907C82.3154 276.907 68.0947 262.692 68.0947 245.22ZM68.7914 245.22C68.7914 262.308 82.6994 276.211 99.795 276.211C116.891 276.211 130.799 262.308 130.799 245.22C130.799 228.131 116.891 214.229 99.795 214.229C82.6994 214.229 68.7914 228.131 68.7914 245.22Z" fill="white"/>
<path d="M72.623 245.22C72.623 260.22 84.7882 272.381 99.7947 272.381C114.801 272.381 126.966 260.22 126.966 245.22C126.966 230.219 114.801 218.059 99.7947 218.059C84.7882 218.059 72.623 230.219 72.623 245.22ZM117.457 238.716L112.643 241.852L110.793 239.015L117.457 238.716ZM110.128 254.667L111.41 251.533L115.447 256.841L110.128 254.667ZM97.8006 265.416L101.188 259.672V265.416H97.8006ZM97.8006 232.16L101.188 226.416V232.16H97.8006ZM82.749 256.841L86.7859 251.533L88.068 254.667L82.749 256.841ZM80.7388 238.716L87.4027 239.015L85.5531 241.852L80.7388 238.716Z" fill="#E6E6E6"/>
<path d="M291.738 147.371H318.213V141.8H291.738V147.371Z" fill="#3F3D56"/>
<path d="M318.045 286.209L327.718 286.208L332.32 248.91L318.043 248.911L318.045 286.209Z" fill="#FFB6B6"/>
<path d="M351.188 285.99C351.489 286.497 351.648 288.134 351.648 288.723C351.648 290.536 350.178 292.005 348.365 292.005L318.407 292.005C317.17 292.005 316.167 291.003 316.167 289.766V288.519C316.167 288.519 314.685 284.772 317.736 280.154C317.736 280.154 321.528 283.77 327.195 278.106L328.866 275.08L340.962 283.923L347.666 284.748C349.133 284.928 350.433 284.72 351.188 285.99Z" fill="#2F2E41"/>
<path d="M274.582 286.209L284.256 286.208L288.857 248.91L274.58 248.911L274.582 286.209Z" fill="#FFB6B6"/>
<path d="M307.725 285.99C308.026 286.497 308.185 288.134 308.185 288.723C308.185 290.536 306.715 292.005 304.902 292.005L274.944 292.005C273.707 292.005 272.704 291.003 272.704 289.766V288.519C272.704 288.519 271.222 284.772 274.273 280.154C274.273 280.154 278.065 283.77 283.732 278.106L285.403 275.08L297.499 283.923L304.203 284.748C305.67 284.928 306.971 284.72 307.725 285.99Z" fill="#2F2E41"/>
<path d="M316.513 31.5311L318.35 48.6644L296.924 46.8286L300.597 30.9192L316.513 31.5311Z" fill="#FFB6B6"/>
<path opacity="0.1" d="M316.513 31.5311L318.35 48.6644L296.924 46.8286L300.597 30.9192L316.513 31.5311Z" fill="black"/>
<path d="M308.861 33.6729C316.637 33.6729 322.941 27.3719 322.941 19.5991C322.941 11.8264 316.637 5.52539 308.861 5.52539C301.085 5.52539 294.782 11.8264 294.782 19.5991C294.782 27.3719 301.085 33.6729 308.861 33.6729Z" fill="#FFB6B6"/>
<path d="M318.043 41.6276L341.611 55.3954L333.889 92.7214L339.162 142.897L335.489 265.89L312.84 263.442L309.779 158.807L292.027 267.114H270.033L273.662 150.24L284.681 100.676L277.947 46.8288L298.454 40.4038L318.043 41.6276Z" fill="#2F2E41"/>
<path d="M318.961 23.5765C318.961 23.5765 320.186 19.2932 322.94 19.5991C325.695 19.9051 326.307 17.4575 325.695 16.2337C325.083 15.0099 323.859 8.89083 323.859 8.89083C323.859 8.89083 324.471 4.60751 320.798 3.99561C317.125 3.38371 315.901 2.7718 315.288 1.548C314.676 0.324197 305.494 -0.899603 302.433 0.9361C299.373 2.7718 296.924 6.29386 294.781 7.28639C292.639 8.27893 290.802 10.1146 292.027 13.1741C293.251 16.2337 295.027 22.2174 295.027 22.2174C295.027 22.2174 298.148 21.1289 298.76 22.9646C299.373 24.8003 296.924 22.3527 299.985 17.4575C303.045 12.5622 303.045 7.66703 307.943 9.50274C312.84 11.3384 318.349 10.7265 317.737 14.3979C317.125 18.0694 318.961 23.5765 318.961 23.5765Z" fill="#2F2E41"/>
<path d="M329.458 131.921C326.511 135.039 325.733 139.087 327.718 140.961C329.704 142.835 333.702 141.826 336.649 138.706C337.843 137.475 338.726 135.977 339.222 134.336L351.539 120.965L345.139 115.321L333.676 129.102C332.065 129.691 330.618 130.658 329.458 131.921Z" fill="#FFB6B6"/>
<path d="M341.363 55.0894L362.106 90.4145L365.179 106.541L345.204 131.883L336.753 121.132L346.741 106.541L330.607 78.1275L341.363 55.0894Z" fill="#2F2E41"/>
<path d="M283.042 128.631V86.9812C283.042 80.633 288.209 75.4688 294.56 75.4688H358.253C364.603 75.4688 369.77 80.633 369.77 86.9812V128.631C369.77 134.98 364.603 140.144 358.253 140.144H294.56C288.209 140.144 283.042 134.98 283.042 128.631Z" fill="#A5B4FC"/>
<path d="M314.017 101.757H336.042V96.2526H314.017V101.757Z" fill="#1E1B4B"/>
<path d="M334.237 139.775V128.766H316.341V139.775H334.237Z" fill="#1E1B4B"/>
<path d="M335.077 86.8462V75.8376H317.181V86.8462H335.077Z" fill="#1E1B4B"/>
<path d="M289.489 123.966C292.435 127.085 293.214 131.132 291.228 133.006C289.242 134.88 285.245 133.871 282.298 130.751C281.103 129.521 280.221 128.023 279.725 126.382L267.407 113.011L273.808 107.366L285.271 121.147C286.882 121.737 288.328 122.703 289.489 123.966Z" fill="#FFB6B6"/>
<path d="M277.583 47.1348L256.841 82.4599L253.768 98.5866L273.742 123.928L282.193 113.177L272.206 98.5866L288.339 70.1729L277.583 47.1348Z" fill="#2F2E41"/>
<path d="M19.6618 215.575C30.0509 215.575 38.4729 208.248 38.4729 199.209C38.4729 190.171 30.0509 182.843 19.6618 182.843C9.27264 182.843 0.850586 190.171 0.850586 199.209C0.850586 208.248 9.27264 215.575 19.6618 215.575Z" fill="#E6E6E6"/>
</svg>
